<?xml version="1.0" standalone="no"?>
<!DOCTYPE svg PUBLIC "-//W3C//DTD SVG 20010904//EN"
 "http://www.w3.org/TR/2001/REC-SVG-20010904/DTD/svg10.dtd">
<svg version="1.0" xmlns="http://www.w3.org/2000/svg"
 width="1261.000000pt" height="768.000000pt" viewBox="0 0 1261.000000 768.000000"
 preserveAspectRatio="xMidYMid meet">
<metadata>
Created by potrace 1.15, written by Peter Selinger 2001-2017
</metadata>
<g transform="translate(0.000000,768.000000) scale(0.100000,-0.100000)"
fill="#000000" stroke="none">
<path d="M2135 7040 c-252 -40 -430 -135 -552 -295 -57 -75 -276 -487 -319
-601 -64 -170 -94 -403 -94 -734 0 -329 17 -542 95 -1205 116 -981 139 -1377
138 -2437 l-1 -718 57 0 c57 0 58 1 146 75 49 41 94 83 99 92 16 27 14 1547
-2 1853 -25 477 -53 795 -117 1340 -96 812 -108 959 -109 1315 0 278 5 346 41
535 19 98 39 124 139 177 128 68 257 93 474 93 352 0 762 -109 961 -256 153
-112 201 -295 134 -519 -67 -226 -168 -437 -446 -927 -430 -756 -551 -1067
-566 -1453 -11 -281 39 -507 172 -780 174 -355 486 -725 970 -1150 109 -96
495 -422 526 -444 17 -12 34 -5 162 69 132 75 146 86 175 135 18 29 32 58 32
63 0 6 -80 77 -177 158 -679 566 -979 868 -1222 1232 -269 403 -357 816 -261
1227 65 281 192 553 574 1236 367 654 467 907 467 1175 0 121 -12 178 -52 260
-113 229 -432 390 -929 470 -114 18 -431 27 -515 14z m285 -50 c0 -16 -24 -17
-75 -4 -44 11 -48 11 -31 -1 10 -8 22 -12 27 -10 4 3 10 1 14 -5 3 -5 15 -10
26 -10 10 0 19 -4 19 -10 0 -5 7 -10 15 -10 8 0 12 6 9 14 -3 7 2 16 10 19 9
4 16 13 16 21 0 12 8 14 33 9 40 -7 60 -23 29 -23 -21 0 -28 -10 -16 -23 3 -3
18 5 32 19 15 13 33 22 42 19 8 -2 60 -11 115 -21 55 -9 103 -21 106 -26 3 -5
15 -9 25 -8 11 1 27 2 37 1 16 -1 17 -3 4 -16 -11 -10 -25 -13 -48 -8 -21 4
-30 3 -26 -4 13 -21 68 -21 87 -1 10 11 26 18 36 16 17 -3 17 -4 0 -20 -10
-10 -12 -18 -6 -18 6 0 18 6 26 14 12 12 21 12 63 -2 28 -8 47 -20 44 -25 -4
-6 0 -8 10 -4 8 3 32 -3 53 -14 21 -10 44 -19 51 -19 7 0 13 -4 13 -9 0 -11
-25 -21 -54 -21 -12 0 -31 -7 -42 -16 -19 -15 -19 -16 1 -8 11 4 29 8 40 10
36 5 65 16 65 26 0 11 110 -47 125 -67 6 -6 20 -15 32 -19 12 -4 35 -22 52
-41 17 -19 33 -35 36 -35 10 0 35 -28 35 -39 0 -15 40 -14 41 2 0 6 4 3 8 -8
5 -11 5 -27 1 -35 -5 -10 -1 -25 11 -40 12 -17 19 -20 19 -10 0 13 1 13 10 0
8 -13 10 -13 10 2 0 9 -9 19 -19 23 -12 4 -18 12 -14 21 12 31 33 10 64 -63
111 -267 -9 -659 -418 -1360 -29 -50 -53 -95 -53 -100 0 -4 -23 -46 -51 -93
-29 -47 -76 -132 -107 -190 -30 -58 -74 -141 -97 -185 -119 -221 -242 -530
-279 -695 -43 -192 -46 -462 -7 -630 41 -180 132 -398 227 -547 21 -33 31 -59
28 -75 -3 -17 -2 -18 3 -6 13 27 126 -136 120 -171 -5 -23 -4 -24 8 -8 12 16
14 15 30 -9 15 -24 16 -26 1 -21 -13 5 -14 3 -3 -13 13 -22 27 -26 27 -8 0 7
7 2 16 -10 15 -21 15 -25 -2 -43 -9 -10 -14 -22 -10 -26 4 -4 15 3 25 15 18
24 34 21 24 -6 -4 -10 -2 -13 5 -8 17 10 25 -13 10 -31 -12 -15 -10 -16 13
-10 30 8 45 -5 51 -43 2 -15 10 -25 20 -25 9 0 20 -4 25 -8 11 -11 11 -57 0
-57 -4 0 -5 -4 -2 -10 3 -5 20 -7 38 -4 31 5 31 5 12 -11 -17 -13 -18 -17 -5
-25 8 -5 21 -5 31 1 28 15 36 10 14 -9 -20 -16 -20 -18 -3 -35 10 -9 18 -13
18 -8 0 5 10 7 21 4 21 -6 21 -7 4 -20 -17 -12 -16 -13 16 -14 23 -1 27 -3 11
-6 -12 -2 -20 -8 -17 -13 3 -4 14 -6 25 -3 11 3 20 0 20 -6 0 -6 -5 -11 -12
-11 -8 0 -6 -6 5 -17 13 -13 19 -15 29 -5 23 23 32 12 10 -11 -20 -21 -20 -24
-5 -24 10 0 21 4 24 10 4 5 12 6 18 2 9 -5 9 -10 0 -21 -9 -12 -6 -14 22 -15
24 -1 27 -3 12 -6 -41 -8 -27 -33 17 -33 22 0 40 -4 40 -10 0 -5 -10 -10 -22
-10 -21 -1 -22 -1 -5 -11 11 -6 30 -9 43 -6 16 3 24 0 24 -9 0 -8 -7 -11 -17
-8 -10 4 12 -23 50 -58 37 -36 67 -69 67 -74 0 -5 10 -11 22 -11 13 -1 29 -10
36 -20 7 -10 22 -17 32 -15 21 3 28 -14 9 -20 -13 -4 88 -88 106 -88 8 0 11
-8 8 -20 -4 -15 -2 -19 10 -14 10 3 30 -8 54 -30 21 -20 48 -46 60 -57 13 -13
23 -16 28 -9 3 6 11 8 16 5 5 -4 3 -13 -6 -21 -8 -9 -15 -21 -15 -27 0 -8 3
-8 12 1 8 8 21 3 52 -21 22 -17 49 -31 60 -30 17 2 17 1 -4 -9 l-25 -12 28 -4
c16 -2 27 -10 27 -18 0 -13 3 -13 22 0 37 26 38 19 5 -38 -29 -49 -43 -60
-170 -134 l-138 -81 -42 38 c-23 21 -83 72 -133 112 -50 41 -117 97 -150 125
-32 28 -97 84 -144 124 -280 238 -613 579 -779 798 -121 161 -279 421 -266
441 3 5 1 11 -5 13 -8 2 -70 139 -70 154 0 2 7 1 15 -2 8 -4 15 -2 15 4 0 5
-9 12 -20 15 -30 8 -24 25 8 20 21 -4 24 -2 12 6 -8 6 -22 11 -31 11 -23 0
-31 27 -11 35 15 6 14 8 -5 16 -27 10 -29 22 -6 45 16 16 16 16 -5 10 -16 -6
-22 -3 -22 8 0 9 6 16 13 16 6 0 3 7 -8 16 -17 13 -18 16 -5 25 11 8 12 12 2
16 -6 2 -9 9 -6 14 3 6 -2 20 -13 31 -10 12 -13 18 -6 15 6 -4 14 -3 18 3 3 5
-1 10 -9 10 -9 0 -16 5 -16 11 0 6 9 9 20 6 11 -3 18 -2 15 3 -3 4 2 11 11 14
8 3 13 10 9 15 -3 6 -12 8 -20 4 -9 -3 -22 1 -31 8 -14 11 -13 14 8 25 13 8
18 13 12 14 -14 0 -25 48 -12 56 4 3 5 10 2 16 -4 6 0 14 7 19 12 8 12 10 0
18 -12 8 -12 12 -2 24 10 13 8 17 -10 22 -20 7 -20 8 -6 17 10 5 17 16 17 23
0 8 8 16 18 16 15 1 15 2 -1 6 -11 3 -16 11 -13 19 3 8 0 14 -7 15 -9 0 -9 2
0 5 7 3 9 12 6 20 -3 8 4 17 18 23 18 7 19 10 7 10 -28 1 -21 20 15 36 31 15
31 15 5 11 -24 -3 -28 0 -28 20 0 19 5 24 28 25 26 0 26 1 5 9 -22 9 -23 14
-6 58 10 28 15 46 16 65 1 9 5 17 10 17 4 0 6 4 2 10 -3 5 3 18 14 29 13 13
16 21 8 25 -8 3 -6 9 6 19 11 9 15 21 11 32 -4 10 -1 21 7 26 8 4 15 20 16 35
1 15 7 31 14 34 6 4 8 13 5 19 -4 7 1 11 13 11 11 0 23 5 26 10 3 6 -1 10 -10
10 -21 0 -12 35 17 67 12 12 18 29 15 37 -4 9 -2 16 4 16 6 0 9 6 6 14 -3 8 3
22 13 31 11 10 17 22 14 27 -9 14 16 38 32 31 8 -3 14 0 14 7 0 6 -4 9 -9 5
-5 -3 -12 -1 -16 5 -3 5 -2 10 3 10 6 0 15 14 21 30 5 17 17 33 26 37 13 4 14
8 4 13 -10 6 -9 11 2 23 8 8 21 33 29 57 8 24 23 46 34 50 12 5 16 9 10 9 -11
1 11 55 34 84 5 7 13 23 17 37 4 14 10 27 14 30 6 5 20 31 83 149 12 25 31 54
41 65 9 11 17 24 17 29 0 5 32 65 70 132 39 67 70 127 70 134 0 6 4 11 9 11 5
0 12 12 16 27 3 15 10 30 13 33 4 3 18 25 30 50 13 25 41 78 63 119 21 41 37
77 34 79 -2 2 2 11 10 19 8 8 18 26 22 41 3 14 15 35 25 46 17 19 17 21 2 26
-14 5 -11 12 16 39 23 23 30 35 21 40 -9 6 -8 14 2 34 8 15 17 24 20 20 4 -3
7 -1 7 5 0 5 -6 13 -12 16 -9 3 -7 9 7 21 14 11 16 18 8 23 -8 5 -10 22 -6 49
3 24 9 40 14 38 4 -3 10 -1 14 5 3 5 0 10 -8 10 -8 0 -17 9 -20 20 -3 11 -1
20 3 20 12 0 -1 42 -18 59 -12 13 -12 16 4 28 10 7 24 13 31 13 7 0 13 5 13
10 0 13 -16 13 -41 0 -21 -12 -28 3 -7 16 7 5 4 10 -10 15 -32 12 -27 29 11
31 l32 1 -32 4 c-17 2 -36 10 -42 17 -9 11 -5 15 20 20 16 3 28 10 24 16 -3 5
-19 7 -35 4 -24 -5 -35 0 -72 38 -181 185 -627 322 -1048 321 -253 0 -412 -42
-546 -144 -44 -34 -52 -46 -62 -91 -30 -136 -44 -270 -49 -478 -8 -321 12
-601 88 -1235 80 -674 114 -1049 141 -1550 13 -257 18 -1760 6 -1806 -5 -15
-45 -57 -99 -102 -87 -73 -94 -77 -140 -77 -37 0 -49 4 -49 15 0 8 5 15 10 15
6 0 10 8 10 18 0 10 5 23 11 29 8 8 5 13 -11 18 -19 6 -20 8 -6 18 13 10 14
19 6 46 -8 28 -6 36 7 46 11 8 13 14 5 19 -18 11 -14 67 6 89 16 19 16 20 0
14 -25 -9 -31 9 -14 43 13 27 13 30 -2 30 -16 1 -15 2 1 14 19 15 23 36 6 36
-8 0 -8 4 0 14 9 11 8 18 -4 30 -9 9 -12 16 -6 16 6 0 8 6 5 14 -3 8 -1 17 4
20 10 6 8 103 -2 113 -3 3 2 12 10 20 13 14 13 17 -1 33 -15 17 -11 50 6 50 5
0 9 5 9 10 0 6 -7 10 -15 10 -8 0 -15 5 -15 10 0 6 5 10 10 10 18 0 11 20 -7
20 -11 1 -7 6 12 14 24 10 26 13 12 19 -19 7 -24 57 -5 57 7 0 6 6 -4 18 -18
21 -17 40 1 51 12 8 11 12 -3 27 -10 9 -14 20 -9 23 10 7 10 42 0 58 -4 6 -2
15 4 19 8 4 7 9 -2 15 -11 7 -10 11 6 23 18 14 18 15 2 16 -15 0 -16 3 -7 21
9 15 8 24 -1 35 -6 8 -8 14 -3 14 5 0 0 7 -10 15 -19 14 -19 15 7 15 15 0 27
5 27 11 0 5 -4 8 -8 5 -4 -2 -13 4 -20 14 -7 11 -8 21 -2 25 5 3 7 12 3 20 -3
8 0 15 6 15 20 0 12 18 -11 26 l-23 7 22 10 c20 9 20 11 6 44 -13 32 -12 36 3
47 12 9 14 15 6 20 -18 11 -14 67 5 88 16 17 15 18 -7 16 -33 -4 -38 27 -8 52
20 17 21 19 5 20 -11 0 -17 5 -14 13 2 6 10 11 16 10 17 -4 13 8 -6 23 -15 11
-15 15 -4 23 9 6 10 11 2 15 -17 11 -13 54 5 64 14 8 12 10 -12 16 -19 5 -24
10 -15 15 10 6 10 17 3 44 -11 39 -8 47 20 47 12 0 18 7 17 23 0 12 -3 16 -6
10 -2 -7 -11 -13 -19 -13 -22 0 -17 48 6 60 11 6 20 16 20 22 0 9 -3 9 -12 0
-7 -7 -22 -12 -35 -12 -21 0 -22 2 -11 20 7 11 21 20 30 20 10 0 18 5 18 11 0
6 -9 8 -20 4 -25 -8 -26 3 -2 21 15 12 14 13 -12 14 l-28 0 23 20 24 19 -22 1
c-24 0 -31 14 -13 25 16 10 12 23 -7 28 -13 2 -5 9 25 21 45 20 60 42 15 25
-21 -8 -30 -6 -42 6 -15 15 -14 16 4 10 18 -6 18 -5 -2 13 -19 16 -20 21 -8
26 11 4 14 13 9 31 -5 20 -2 25 12 26 14 1 12 3 -6 8 l-25 7 30 18 c19 11 23
15 9 11 -28 -7 -41 21 -13 30 10 4 19 10 19 15 0 6 -11 5 -26 0 -33 -13 -38
-13 -27 3 6 6 13 25 17 40 6 24 3 30 -14 34 -11 3 -20 9 -20 14 0 9 12 12 45
10 18 -1 18 0 -2 9 -15 6 -23 18 -23 35 0 14 -6 25 -12 26 -7 1 -2 5 12 9 l25
8 -24 1 c-17 1 -21 4 -14 14 14 17 11 72 -4 72 -23 0 -25 14 -4 36 22 24 14
49 -16 49 -11 0 -13 4 -6 13 6 6 13 24 17 39 5 21 2 31 -14 40 -19 12 -19 13
3 25 l22 12 -25 1 c-15 1 -19 4 -10 7 8 3 23 15 35 25 20 20 20 20 -20 13 -37
-6 -38 -5 -21 9 11 9 15 19 10 28 -5 7 -7 21 -6 31 2 9 -3 17 -10 17 -10 0
-10 2 1 9 12 8 12 12 2 24 -9 12 -9 16 1 20 8 4 7 6 -4 6 -29 1 -20 19 12 26
17 4 28 11 24 16 -3 5 -15 7 -26 3 -16 -5 -19 -2 -16 13 2 10 10 17 17 15 6
-1 19 4 27 13 18 17 3 20 -26 5 -13 -7 -21 -6 -30 5 -10 12 -10 15 0 15 7 0
10 7 6 15 -3 10 1 15 12 15 10 1 5 6 -13 15 l-30 13 27 1 c26 1 46 17 34 28
-3 4 -17 1 -30 -5 -32 -14 -39 -5 -19 24 15 24 11 60 -6 50 -5 -3 -11 0 -14 8
-3 8 0 16 6 19 15 6 21 57 7 57 -5 0 -7 7 -4 15 4 10 0 15 -12 15 -18 1 -18 1
-1 11 12 7 16 17 12 30 -4 11 -2 19 4 19 22 0 10 18 -16 25 -15 3 -22 9 -16
13 17 11 22 62 7 62 -20 0 -17 10 8 37 17 19 19 23 5 17 -14 -5 -17 0 -17 34
0 23 5 43 13 45 7 4 2 9 -12 13 -22 7 -23 8 -7 20 16 11 16 13 -4 19 -19 6
-20 8 -5 19 15 11 15 13 1 25 -15 12 -15 15 1 27 11 8 13 13 6 14 -7 0 -10 7
-6 16 3 8 12 13 19 10 8 -3 14 -1 14 4 0 6 -9 10 -20 10 -11 0 -20 5 -20 10 0
6 6 10 13 10 8 0 8 3 2 8 -14 9 -18 65 -5 57 6 -3 10 -2 10 4 0 5 -9 13 -20
16 -21 7 -28 25 -9 25 6 0 8 7 5 17 -4 9 -1 20 6 25 11 6 10 10 -1 17 -9 6
-11 18 -7 38 6 24 3 32 -11 37 -16 7 -16 9 6 20 22 12 23 14 6 24 -17 9 -17
10 3 23 19 12 19 14 4 26 -15 13 -15 13 6 8 30 -9 28 3 -3 15 -29 11 -32 25
-9 34 14 5 14 9 3 22 -10 13 -10 17 2 25 11 7 10 9 -5 9 -15 0 -16 3 -6 15 10
12 9 16 -5 21 -14 6 -11 9 14 20 17 7 31 19 30 26 0 10 -2 10 -6 1 -5 -13 -33
-18 -33 -7 0 4 8 13 18 20 10 8 12 13 5 14 -18 0 -16 18 4 38 16 16 16 17 0
20 -21 4 -21 9 -3 45 13 24 13 27 0 27 -12 0 -12 4 -4 20 6 11 8 25 5 30 -3 6
-1 10 4 10 6 0 11 6 11 14 0 8 6 17 13 19 6 3 4 6 -7 6 -18 1 -18 2 -3 19 10
10 14 22 10 26 -4 4 -1 11 7 16 11 7 12 12 3 21 -18 18 5 58 41 69 l31 10 -32
-5 c-18 -2 -33 -1 -33 4 0 13 30 68 30 56 0 -5 4 -4 9 4 7 10 4 19 -7 27 -14
10 -12 14 16 28 32 17 45 33 17 22 -21 -8 -19 21 1 32 12 6 13 11 5 16 -8 5
-6 15 7 34 11 15 27 50 36 77 19 58 41 96 32 55 -48 -211 -53 -270 -21 -270 8
0 17 11 21 25 3 14 10 25 15 25 5 0 9 9 9 20 0 11 3 20 8 20 8 0 18 23 51 115
14 38 38 77 64 105 24 25 46 52 50 60 4 8 18 32 32 53 14 20 21 37 15 37 -5 0
-10 -4 -10 -9 0 -5 -12 -8 -27 -6 -35 4 -82 -24 -152 -90 -63 -59 -53 -31 19
51 28 32 48 64 45 71 -2 8 -1 11 5 8 5 -3 16 10 26 30 9 19 19 33 23 31 3 -2
7 6 7 19 1 13 14 36 28 52 14 15 29 36 32 46 4 12 11 16 22 12 9 -3 13 -3 9 1
-11 11 33 54 55 54 11 0 16 5 13 10 -3 6 7 18 24 28 17 9 31 20 31 25 0 4 11
7 25 7 14 0 25 5 25 10 0 6 8 10 18 10 10 0 23 5 29 11 6 6 27 11 47 12 20 1
36 4 36 8 0 7 96 33 115 31 6 0 37 -3 70 -5 33 -2 72 -8 85 -12 24 -7 24 -7 5
8 -20 16 -20 16 3 10 12 -3 22 -1 22 5 0 6 21 12 48 14 48 3 82 -6 82 -22z
m-847 -477 c-10 -25 -163 -306 -173 -317 -9 -9 10 101 30 175 13 48 43 85 104
130 46 34 47 34 39 12z"/>
<path d="M2480 6530 c8 -4 49 -13 90 -20 70 -11 118 -23 165 -40 11 -4 40 -13
65 -20 25 -7 50 -16 55 -20 6 -4 24 -11 42 -14 17 -4 37 -14 44 -22 6 -8 20
-14 30 -14 11 0 19 -4 19 -9 0 -5 14 -12 30 -16 17 -4 48 -22 68 -41 20 -19
47 -34 60 -34 12 0 22 -5 22 -11 0 -5 4 -8 10 -4 15 9 0 35 -21 35 -10 0 -19
4 -19 9 0 6 -22 22 -49 38 -27 15 -47 31 -44 37 3 5 1 6 -5 2 -6 -4 -31 3 -54
14 -24 12 -71 30 -105 42 -34 11 -60 25 -59 32 2 6 1 8 -1 4 -3 -5 -13 -8 -22
-8 -10 0 -21 3 -25 8 -7 7 -11 8 -37 11 -5 0 -7 5 -4 11 4 6 -6 7 -26 3 -29
-6 -31 -5 -24 18 7 23 7 23 -11 8 -19 -17 -92 -17 -104 -1 -3 4 -27 8 -55 9
-31 1 -44 -2 -35 -7z"/>
<path d="M3277 5593 c-3 -5 -26 -48 -52 -98 -27 -49 -134 -243 -238 -430 -243
-435 -449 -857 -432 -885 3 -5 -1 -11 -7 -13 -7 -3 -3 -6 9 -6 13 -1 27 8 33
19 6 11 17 20 25 20 8 0 15 5 15 11 0 5 -4 7 -10 4 -5 -3 -10 -2 -10 4 0 14
32 29 48 24 6 -3 12 0 12 6 0 6 -4 11 -10 11 -5 0 -7 7 -4 15 4 8 12 15 20 15
10 0 13 7 8 25 -5 18 1 30 23 51 19 18 24 28 15 31 -8 3 -10 9 -3 16 8 10 85
154 125 234 6 13 16 23 21 23 6 0 11 10 12 21 1 12 8 29 16 38 8 9 20 31 28
49 8 17 18 32 22 32 5 0 6 4 2 9 -3 5 0 13 5 16 6 4 15 17 20 28 6 12 20 40
34 62 13 22 43 78 67 125 24 47 47 87 50 90 3 3 11 20 18 38 8 17 16 32 20 32
4 0 13 17 20 38 8 20 22 49 32 64 11 14 19 29 19 31 0 3 16 41 37 84 20 43 35
81 35 86 -1 4 3 7 8 7 6 0 10 8 8 17 -2 11 6 19 22 23 24 6 24 7 -7 14 -18 4
-33 12 -33 17 0 11 -17 12 -23 2z m-116 -290 c-73 -150 -99 -199 -291 -538
-59 -104 -133 -235 -164 -290 -30 -55 -56 -95 -56 -90 0 21 161 338 277 545
250 448 297 530 301 525 3 -2 -28 -71 -67 -152z"/>
<path d="M7845 6917 c-161 -92 -277 -171 -366 -251 -461 -414 -526 -482 -607
-636 -117 -221 -167 -543 -143 -928 13 -220 30 -361 101 -862 109 -770 130
-1003 130 -1430 0 -329 -19 -548 -77 -885 -26 -153 -37 -194 -46 -165 -7 22
-40 212 -98 560 -158 964 -280 1508 -510 2280 -196 656 -428 1262 -656 1712
-218 432 -379 628 -513 628 -54 0 -91 -20 -131 -72 -18 -24 -92 -113 -164
-198 -72 -85 -137 -166 -146 -180 -94 -149 -117 -653 -79 -1740 18 -492 24
-1547 11 -1775 -32 -552 -99 -1077 -221 -1720 -41 -217 -41 -210 19 -225 38
-9 55 -9 73 0 168 87 279 155 283 174 12 57 96 527 114 638 125 774 163 1239
163 2003 0 431 -4 643 -32 1540 -13 406 -13 845 -1 845 29 0 261 -443 381
-725 287 -680 566 -1587 745 -2420 66 -305 93 -455 225 -1245 75 -448 121
-649 176 -770 32 -69 58 -97 103 -110 33 -9 51 -3 219 69 100 44 203 91 228
106 62 36 111 116 168 270 196 533 295 1243 266 1920 -16 367 -46 637 -154
1390 -77 533 -89 662 -89 920 0 319 29 467 130 655 l46 85 111 63 c88 50 151
98 306 234 107 94 199 178 203 188 9 18 -29 111 -48 117 -5 2 -59 -25 -120
-60z m152 -25 c7 -28 -3 -39 -137 -155 -58 -50 -134 -118 -170 -150 -73 -66
-139 -111 -239 -162 -65 -33 -69 -37 -113 -122 -104 -197 -132 -339 -131 -673
0 -275 11 -394 89 -935 30 -209 66 -463 79 -565 114 -867 105 -1463 -30 -2135
-64 -316 -171 -649 -245 -764 -42 -65 -79 -91 -207 -146 -43 -18 -120 -52
-172 -74 -114 -50 -140 -51 -183 -10 l-33 30 32 -15 c40 -20 73 -22 55 -4 -7
7 -12 20 -12 31 0 10 -4 15 -10 12 -5 -3 -10 -1 -10 4 0 15 -27 14 -32 -1 -3
-7 -11 -9 -24 -4 -18 8 -18 8 2 16 25 10 39 28 30 37 -4 4 -12 1 -18 -5 -19
-19 -35 -14 -46 16 -5 15 -13 35 -17 45 -5 12 -2 17 9 17 9 0 16 5 16 11 0 6
-7 8 -15 5 -20 -7 -32 23 -14 35 11 7 11 9 -3 9 -21 0 -24 26 -5 33 7 4 6 6
-4 6 -9 1 -19 10 -22 22 -4 16 -3 18 8 9 10 -8 14 -7 17 2 3 7 -4 17 -15 23
-28 14 -40 62 -20 74 14 7 13 10 -5 20 -25 13 -19 38 12 52 18 8 17 9 -6 4
-15 -3 -30 -1 -33 5 -3 5 -2 10 3 10 5 0 12 9 15 20 3 12 1 18 -5 14 -6 -4
-14 0 -19 7 -5 8 -3 16 4 21 8 5 6 12 -6 26 -9 10 -15 21 -12 24 3 3 1 17 -4
30 -7 18 -6 29 2 37 9 9 8 15 -7 23 -15 8 -16 12 -5 19 12 7 11 9 -1 9 -13 0
-13 1 0 10 13 8 12 11 -4 23 -18 13 -18 14 -1 21 17 6 16 8 -6 29 -22 21 -22
22 -4 25 30 6 43 22 18 22 -12 0 -23 8 -26 20 -3 11 -2 20 2 20 4 0 16 7 27
15 18 14 17 15 -10 9 -19 -5 -31 -2 -37 7 -13 21 -11 32 5 26 19 -7 9 23 -12
38 -16 13 -13 35 8 52 13 11 12 14 -7 19 -27 8 -29 19 -5 29 16 6 16 7 -2 21
-19 13 -18 14 10 15 24 1 25 2 6 6 -27 5 -55 54 -34 61 17 5 15 22 -3 22 -8 0
-15 5 -15 10 0 6 5 10 10 10 6 0 10 5 10 11 0 6 -7 9 -15 5 -8 -3 -15 -1 -15
5 0 5 7 12 15 15 22 9 18 21 -7 29 -14 4 -18 8 -10 12 17 7 15 42 -3 49 -8 4
-15 10 -15 15 0 5 7 9 15 9 8 0 15 5 15 10 0 6 -6 10 -14 10 -8 0 -17 7 -20
16 -4 12 -2 15 9 10 21 -8 19 7 -5 34 -11 13 -20 27 -20 32 0 13 18 10 23 -4
2 -8 8 -9 13 -4 5 5 5 10 -1 13 -32 12 -39 21 -26 37 11 14 11 16 -4 16 -15 0
-15 2 -4 16 11 14 10 18 -6 30 -17 13 -18 16 -5 24 8 5 20 10 25 10 6 1 -3 7
-20 15 -16 7 -24 14 -17 14 18 1 15 28 -5 36 -16 6 -14 10 12 32 l30 25 -28
-5 c-15 -2 -30 0 -33 4 -3 5 0 9 7 9 10 0 10 3 1 12 -17 17 -15 29 3 22 8 -4
15 -2 15 4 0 5 -10 13 -22 17 -22 7 -21 8 7 14 l30 7 -32 11 c-35 13 -43 30
-18 39 8 4 12 10 9 15 -3 5 -9 7 -14 4 -5 -3 -11 -1 -15 5 -3 5 -3 10 2 10 4
0 9 11 9 24 1 17 -2 23 -12 19 -8 -3 -14 0 -14 6 0 6 5 11 10 11 6 0 10 5 10
11 0 5 -4 8 -9 4 -18 -11 -23 16 -6 29 17 12 17 13 -2 18 -26 7 -38 57 -14 59
13 1 13 2 -1 6 -10 2 -18 9 -18 15 0 5 7 7 16 4 14 -5 15 -4 4 9 -10 13 -9 15
9 15 12 0 20 4 17 9 -3 5 -15 7 -25 4 -13 -3 -23 2 -31 17 -7 12 -8 20 -3 17
5 -3 15 -2 23 4 12 7 9 9 -10 10 -14 0 -19 3 -12 6 17 7 15 23 -3 23 -18 0
-19 12 -2 29 10 10 8 15 -8 27 -17 13 -18 16 -5 24 13 8 13 10 -1 10 -9 0 -19
10 -23 23 -11 43 -8 49 25 42 22 -5 29 -4 25 4 -4 6 -13 11 -19 11 -7 0 -23 9
-37 20 -23 18 -23 20 -5 20 17 0 17 2 5 10 -13 8 -11 11 7 16 13 4 20 10 17
16 -3 5 -12 4 -20 -3 -12 -10 -17 -9 -27 0 -9 10 -8 15 6 26 17 12 17 14 -3
28 -11 8 -25 29 -30 46 -8 29 -7 31 10 26 10 -3 22 0 26 6 5 8 2 11 -7 7 -8
-3 -23 3 -33 13 -18 17 -18 19 -2 19 9 0 14 5 11 10 -4 6 -10 8 -15 5 -4 -3
-10 2 -13 10 -4 8 2 16 14 20 23 8 16 25 -10 25 -21 0 -36 39 -21 54 13 13 13
26 -1 26 -5 0 -7 -5 -3 -12 4 -7 3 -8 -5 -4 -7 4 -11 15 -9 24 1 10 -2 23 -7
31 -5 10 -4 16 3 19 17 5 15 22 -2 22 -21 0 -29 30 -8 31 14 0 13 3 -6 16 -21
15 -21 16 -5 30 16 13 16 14 1 9 -23 -7 -48 62 -27 75 11 7 10 9 -3 9 -10 0
-18 5 -18 10 0 6 6 10 14 10 7 0 19 7 26 15 10 12 10 15 -3 15 -9 0 -19 -5
-23 -11 -9 -15 -22 1 -33 39 -8 25 -6 36 7 49 16 16 16 16 -5 11 -24 -6 -33 7
-10 15 8 3 5 11 -10 26 -13 12 -23 26 -23 31 0 4 -3 16 -6 24 -5 12 -2 15 10
10 9 -3 16 -2 16 4 0 5 -10 13 -22 16 -22 7 -22 7 -3 16 20 8 18 11 -7 14 -7
0 -13 10 -13 21 0 11 -6 26 -12 33 -16 16 -17 32 -3 32 6 0 10 4 10 10 0 5 -7
7 -15 4 -8 -4 -15 -2 -15 4 0 6 -3 18 -7 28 -4 11 -3 15 5 10 6 -3 14 -1 17 5
4 6 -2 13 -14 16 -22 6 -29 33 -8 33 6 0 3 8 -9 18 -28 22 -38 52 -19 52 8 0
15 5 15 10 0 6 -4 10 -10 10 -5 0 -13 0 -17 0 -8 0 -31 55 -32 78 -1 6 7 12
17 13 12 0 10 3 -8 11 -15 6 -20 12 -12 15 19 7 14 20 -9 26 -15 4 -20 11 -16
21 4 9 2 16 -2 16 -5 0 -14 13 -19 29 -8 23 -7 32 6 46 16 16 15 17 -8 10 -22
-7 -23 -6 -11 9 12 14 11 16 -3 16 -25 0 -19 17 9 24 35 9 32 27 -4 20 -21 -4
-30 -2 -35 11 -5 14 -2 16 19 11 14 -4 25 -2 25 4 0 5 -14 10 -31 10 -24 0
-30 4 -25 15 3 8 1 15 -4 15 -6 0 -10 5 -10 10 0 6 8 10 18 10 9 0 24 5 32 11
11 7 5 8 -22 3 -44 -7 -50 7 -10 23 l27 11 -32 -4 c-18 -2 -34 0 -34 6 -3 20
-4 25 -13 39 -5 8 -4 16 5 22 11 7 11 9 -2 9 -9 0 -19 7 -23 15 -3 9 0 15 8
15 8 0 17 7 20 16 5 14 4 15 -9 4 -9 -8 -19 -9 -24 -4 -9 10 -111 253 -111
265 0 4 8 10 18 12 10 2 8 3 -5 2 -30 -3 -46 35 -24 55 8 8 18 14 21 12 2 -2
6 1 8 7 5 16 -9 13 -28 -4 -16 -15 -19 -12 -38 26 l-21 41 24 26 c30 32 25 42
-5 12 -17 -17 -24 -19 -30 -9 -5 8 -2 18 8 27 15 12 15 13 -6 9 -15 -4 -22 -1
-19 6 2 7 16 11 31 9 14 -1 26 2 26 7 0 17 -17 22 -43 12 -31 -12 -43 7 -18
27 14 12 14 12 -4 8 -17 -5 -25 3 -47 47 l-26 53 21 17 c11 9 18 20 14 23 -3
4 -14 -1 -23 -10 -16 -16 -19 -12 -61 65 -34 64 -41 85 -32 96 9 11 9 12 -3 8
-10 -4 -23 5 -37 28 -27 44 -26 49 3 41 13 -3 27 -1 30 4 10 17 -10 23 -37 13
-22 -8 -28 -6 -42 16 -14 21 -15 27 -4 35 11 8 10 9 -4 4 -11 -3 -22 2 -29 14
-7 11 -18 20 -25 20 -16 0 -18 -433 -3 -905 42 -1370 42 -1938 -1 -2460 -33
-411 -93 -843 -195 -1405 -14 -80 -32 -179 -39 -220 -8 -41 -20 -79 -27 -83
-7 -4 -72 -41 -144 -82 -129 -72 -133 -73 -173 -63 -33 8 -39 13 -30 24 6 8
15 12 19 9 5 -3 11 -1 15 5 3 5 0 10 -8 10 -17 0 -32 31 -19 39 5 3 13 29 17
56 5 28 10 57 12 65 3 8 4 24 4 35 0 11 5 23 11 26 9 6 8 12 -1 23 -10 12 -11
16 -1 16 7 0 10 7 7 15 -4 8 -2 17 4 21 7 4 6 10 -1 19 -8 9 -5 14 12 19 17 4
20 8 10 14 -10 7 -11 18 -1 55 8 35 9 50 0 61 -9 10 -8 15 4 20 9 3 15 18 15
40 0 19 5 38 11 42 8 4 7 9 -2 15 -11 7 -12 11 -1 17 7 5 10 16 6 25 -4 12 1
20 17 26 17 7 19 10 7 10 -14 1 -16 8 -11 39 3 20 9 41 14 46 4 5 3 18 -3 29
-8 16 -7 23 6 32 8 7 13 15 9 19 -4 4 -1 11 7 16 12 8 12 10 -3 16 -21 8 -12
24 14 24 26 0 24 16 -3 23 l-22 6 21 19 c19 16 20 19 5 28 -10 7 -13 15 -6 25
5 8 9 23 9 34 0 11 4 26 9 34 5 8 4 16 -2 20 -14 8 8 37 33 44 14 3 11 5 -10
6 -29 2 -29 2 -10 17 17 13 18 16 5 24 -8 5 -19 10 -25 10 -5 1 4 7 20 14 30
13 30 13 6 20 l-23 8 27 18 c19 13 23 19 12 23 -14 5 -17 41 -4 53 4 4 2 13
-4 20 -7 9 -5 14 11 19 20 6 21 7 3 21 -12 9 -14 16 -7 21 15 11 11 53 -7 64
-11 7 -10 9 5 9 15 0 17 3 9 11 -9 9 -6 17 8 32 10 11 19 26 19 31 0 6 -4 5
-9 -3 -5 -7 -14 -10 -20 -7 -8 5 -7 12 4 22 18 19 19 34 3 34 -9 1 -8 4 2 13
17 14 21 107 5 107 -5 1 1 10 14 21 19 16 22 22 12 29 -11 6 -11 15 -3 38 8
23 7 32 -2 35 -14 5 -15 35 -2 55 4 7 2 12 -5 12 -9 0 -9 4 1 15 6 8 9 19 5
24 -3 6 -1 20 6 32 9 17 8 23 -2 30 -9 6 -10 12 -4 17 11 8 12 72 1 90 -3 6 4
18 16 26 18 13 19 16 6 16 -13 0 -16 8 -15 41 2 22 -1 43 -6 46 -5 3 -3 9 4
13 10 7 10 12 1 23 -7 7 -9 17 -6 20 3 3 7 26 8 51 1 36 -2 46 -14 46 -10 0
-8 6 9 19 l24 19 -23 7 c-17 5 -19 9 -9 15 19 13 24 69 5 76 -12 5 -12 10 2
35 16 28 16 31 -1 43 -14 11 -15 15 -4 19 10 4 13 24 12 76 -2 59 1 71 14 72
11 0 9 4 -6 11 -24 12 -29 23 -13 33 5 3 7 12 3 20 -3 10 1 15 13 16 14 0 10
5 -11 14 -22 10 -26 15 -15 19 17 7 20 53 6 75 -7 10 -5 16 3 19 11 4 11 6 0
13 -11 6 -10 12 4 27 16 17 16 20 2 25 -21 9 -19 27 3 27 13 0 14 2 3 9 -7 5
-11 13 -7 19 3 5 -1 12 -9 15 -11 5 -12 13 -5 36 6 21 5 31 -2 31 -6 0 -5 7 3
17 10 12 11 17 2 20 -8 3 -8 11 3 31 10 20 11 28 1 34 -9 6 -9 10 1 17 11 6
10 10 -4 15 -13 5 -14 10 -6 18 8 8 9 15 1 25 -9 10 -7 13 7 13 16 0 17 2 4
10 -13 9 -11 14 10 32 23 20 23 21 4 16 -19 -5 -22 -1 -22 33 -1 22 -4 49 -7
60 -5 15 -4 19 4 15 6 -4 11 -2 11 3 0 6 -4 11 -9 11 -5 0 -11 9 -14 20 -3 11
-2 20 2 20 4 0 6 13 3 30 -3 22 0 32 14 37 17 6 16 8 -6 14 l-25 6 30 13 c28
13 29 14 7 18 -18 3 -22 9 -19 30 3 15 0 33 -6 40 -6 8 -6 12 2 12 9 0 9 5 1
20 -8 16 -8 22 4 26 21 8 28 32 8 30 -9 0 -16 5 -15 12 2 6 -4 12 -12 12 -8 0
-15 5 -15 10 0 6 9 10 20 10 21 0 27 14 11 24 -5 4 -8 22 -7 41 2 19 -3 46
-10 60 -7 14 -9 23 -4 20 4 -3 15 8 23 25 9 16 11 30 6 30 -5 0 -9 -4 -9 -10
0 -5 -7 -10 -15 -10 -13 0 -13 3 1 26 15 22 15 27 3 34 -10 7 -8 11 11 18 24
9 24 9 4 16 -19 6 -20 11 -14 46 4 22 3 37 -1 34 -5 -3 -9 0 -9 6 0 6 11 16
25 22 14 6 25 15 25 20 0 11 -17 10 -24 -1 -3 -5 -15 -7 -25 -4 -17 4 -18 8
-8 25 10 17 9 22 -2 26 -11 3 -11 6 0 12 7 5 12 25 11 51 -1 23 3 48 9 55 6 8
7 14 2 14 -9 0 -15 45 -14 90 0 8 1 32 1 53 1 21 6 37 13 37 8 0 7 3 -2 9 -8
5 -11 16 -6 30 4 13 2 21 -6 21 -8 0 -8 4 -2 13 17 20 24 89 11 105 -9 10 -8
16 2 22 10 6 11 12 2 22 -6 8 -7 19 -2 27 4 8 6 20 3 28 -4 9 3 16 16 20 24 6
29 23 6 23 -11 0 -15 8 -12 28 2 15 0 33 -6 40 -6 8 -6 12 3 12 7 0 10 7 7 15
-4 8 -2 17 3 20 6 4 10 25 9 48 0 23 4 57 10 76 6 19 8 37 6 42 -3 4 -1 10 5
14 6 4 8 10 5 15 -19 30 170 270 213 270 13 0 14 2 4 9 -11 7 -11 11 0 22 7 8
18 24 24 34 7 11 19 19 28 19 9 -1 16 4 16 10 0 7 18 31 39 54 21 22 37 43 35
45 -2 2 15 9 38 16 24 7 51 17 61 22 13 7 19 5 23 -6 4 -8 12 -15 19 -15 13 0
95 -83 132 -135 12 -16 23 -24 23 -17 0 6 6 12 14 12 8 0 17 6 19 13 3 7 6 5
6 -5 1 -10 -6 -18 -14 -18 -16 0 -20 -12 -7 -24 4 -4 8 -12 8 -17 1 -5 2 -13
3 -19 2 -20 19 -10 28 17 9 25 11 24 59 -53 265 -417 571 -1162 829 -2019 226
-748 352 -1315 524 -2350 79 -476 87 -515 98 -526 11 -11 45 -1 38 11 -3 5 -1
11 4 14 5 3 14 37 21 75 6 39 18 75 25 81 12 10 12 16 -2 36 -13 20 -13 24 -1
24 7 0 14 9 15 20 1 11 -3 20 -10 20 -8 0 -8 3 1 12 7 7 12 22 12 35 0 14 6
23 15 23 8 0 15 5 15 10 0 6 -7 10 -16 10 -10 0 -13 6 -9 19 3 10 7 43 9 72 2
30 7 61 10 70 4 9 6 20 4 25 -1 5 1 38 6 73 5 47 4 66 -5 72 -9 5 -2 12 22 22
l34 15 -29 1 c-23 1 -26 4 -17 14 17 21 21 99 4 93 -7 -3 -13 -3 -13 0 0 11
27 32 46 36 16 4 14 6 -8 12 -33 10 -36 24 -7 34 20 8 19 8 -5 22 -27 14 -35
30 -15 30 6 0 9 9 6 20 -3 11 -1 20 5 20 5 0 8 10 7 23 -2 12 0 28 4 35 5 6 5
17 1 23 -4 8 -9 7 -15 -2 -6 -10 -9 -9 -15 5 -5 12 -2 22 8 27 12 7 14 17 8
43 -5 22 -4 38 3 45 8 8 7 11 -2 11 -7 0 -9 5 -4 13 4 6 6 20 5 30 -2 10 6 21
20 26 l23 10 -22 0 c-17 1 -23 7 -23 24 0 13 -6 29 -12 36 -11 10 -9 14 5 22
9 6 15 15 12 20 -4 5 -11 7 -16 4 -5 -4 -9 -2 -9 4 0 5 4 12 9 15 10 6 7 98
-4 115 -3 6 -1 11 4 11 19 0 12 17 -8 23 -21 5 -23 38 -3 45 19 6 14 32 -5 32
-16 1 -16 2 1 15 20 15 20 15 0 30 -13 10 -16 17 -7 22 15 11 12 46 -5 56 -11
7 -10 12 5 23 17 13 17 14 -6 20 -23 7 -23 8 -6 20 18 13 18 15 -4 38 -16 16
-19 25 -10 28 14 5 20 98 7 98 -5 0 -8 -5 -8 -11 0 -5 -5 -7 -12 -3 -9 6 -9 9
0 12 17 5 15 30 -3 49 -14 14 -14 17 0 33 17 19 11 50 -11 50 -8 0 -14 5 -14
10 0 6 5 10 11 10 6 0 9 7 5 15 -3 8 2 19 11 24 14 7 13 10 -7 16 -22 7 -22 9
-7 20 16 11 16 13 2 19 -13 5 -14 10 -5 27 10 17 8 21 -9 26 -24 6 -28 23 -6
23 18 0 20 20 3 20 -7 1 -4 6 7 13 12 7 21 23 21 39 1 15 -3 25 -8 22 -4 -3
-6 -9 -3 -14 9 -15 -5 -36 -25 -37 -23 -2 -27 12 -5 21 8 3 15 10 15 16 0 5
-7 10 -15 10 -18 0 -18 1 -5 34 7 20 6 27 -8 35 -14 8 -15 13 -5 30 10 15 10
22 1 27 -8 5 -5 10 8 15 17 6 16 7 -8 14 -26 7 -27 8 -11 31 8 13 19 22 23 19
5 -3 11 -1 15 5 4 6 -6 10 -24 10 -28 0 -30 2 -21 25 8 20 6 25 -6 25 -11 0
-14 8 -11 29 3 17 8 35 12 40 3 6 0 11 -8 11 -8 0 -18 7 -21 16 -3 8 -2 13 2
11 4 -3 13 1 20 9 7 8 9 14 5 14 -5 0 -14 10 -22 21 -11 19 -11 21 1 16 8 -3
21 -1 29 4 10 6 4 9 -18 9 -18 0 -33 5 -33 10 0 6 9 10 20 10 11 0 20 7 20 15
0 8 -3 14 -7 13 -12 -2 -43 13 -43 22 0 4 10 11 23 15 17 5 18 8 7 12 -23 9
-29 24 -23 54 3 16 -2 37 -12 52 -16 25 -16 25 7 20 14 -3 18 -1 12 4 -7 4
-11 21 -10 38 0 17 -4 31 -11 31 -26 3 -28 5 -14 13 16 10 23 49 10 56 -4 3
-5 14 -2 25 3 12 -2 29 -12 40 -10 11 -13 20 -7 20 15 0 20 30 10 59 -6 18 -4
27 9 37 17 13 17 13 0 14 -9 0 -23 11 -29 25 -10 21 -8 27 7 39 13 9 15 15 6
20 -6 4 -8 12 -5 18 4 6 0 14 -7 19 -11 7 -10 11 5 22 15 11 17 18 8 32 -6 12
-7 28 -1 43 5 14 7 42 5 63 -3 22 -1 39 4 39 4 0 6 9 3 19 -3 10 0 28 7 40 9
17 8 22 -5 27 -12 5 -13 9 -4 20 11 13 25 71 35 138 2 17 9 33 15 37 6 4 9 11
5 17 -3 6 -2 21 3 34 16 39 24 63 26 73 2 14 23 67 35 87 6 10 10 25 10 33 0
9 7 18 15 21 8 4 15 12 15 20 0 8 5 14 10 14 6 0 10 7 10 15 0 7 6 18 13 22 7
4 21 25 32 46 11 21 27 37 37 37 10 0 15 5 13 13 -6 15 122 147 143 147 6 0
13 8 17 18 3 9 29 42 56 72 l51 55 -27 -45 c-40 -68 -76 -152 -73 -169 4 -22
32 -25 51 -6 9 8 20 15 26 15 6 0 11 4 11 9 0 5 6 16 13 23 7 7 27 31 45 53
18 22 59 58 91 80 110 74 222 195 180 195 -5 0 -8 -4 -4 -9 3 -6 -2 -14 -12
-19 -12 -7 -20 -6 -28 5 -10 13 -26 7 -116 -44 -109 -62 -164 -88 -124 -58 11
8 35 24 53 37 31 21 60 46 152 128 19 17 53 43 75 58 22 15 49 35 59 45 11 9
25 17 31 17 6 0 29 13 51 30 21 16 48 30 60 30 11 0 29 10 40 21 26 29 53 38
86 28 16 -4 30 -3 33 2 4 5 -1 9 -9 9 -18 0 -19 2 -9 26 6 16 7 15 20 -2 8
-10 16 -29 20 -42z m-437 -300 c0 -10 -103 -109 -210 -202 -47 -41 -95 -83
-108 -94 l-23 -21 19 46 c49 113 74 140 194 211 116 68 128 74 128 60z"/>
<path d="M8780 6918 c-163 -11 -319 -57 -422 -125 -31 -21 -99 -75 -150 -120
-51 -45 -156 -135 -233 -201 -199 -169 -252 -235 -306 -382 -80 -222 -103
-384 -103 -745 0 -257 18 -558 39 -675 3 -14 16 -119 30 -235 13 -115 38 -311
54 -435 115 -870 147 -1380 150 -2390 1 -443 4 -576 14 -582 35 -22 106 -5
312 76 l210 82 3 490 c6 928 -35 1670 -134 2429 -138 1063 -158 1260 -158
1590 0 312 15 451 67 604 29 84 35 96 62 105 17 5 131 10 255 10 194 0 242 -3
345 -22 239 -46 415 -108 539 -190 82 -54 92 -59 81 -42 -5 9 -4 11 4 6 6 -4
9 -11 7 -15 -6 -10 58 -74 66 -66 3 3 11 -3 19 -12 13 -16 12 -17 -3 -4 -27
20 -22 6 16 -47 80 -110 110 -248 109 -492 0 -210 -21 -359 -122 -888 -38
-196 -75 -392 -81 -435 -12 -70 -16 -81 -46 -103 -37 -28 -64 -88 -64 -139 0
-19 -4 -35 -10 -35 -5 0 -11 44 -12 98 l-3 97 -41 3 c-65 5 -70 -6 -66 -180 2
-81 1 -148 -2 -148 -3 0 -12 13 -20 29 -8 15 -36 53 -61 82 -36 42 -45 60 -43
84 3 28 5 30 48 30 l45 0 3 48 c3 43 1 48 -23 57 -42 16 -79 12 -116 -13 -59
-39 -94 -127 -73 -181 3 -9 10 -13 15 -10 5 3 6 -1 4 -8 -8 -19 54 -110 68
-101 7 3 9 3 5 -2 -9 -9 10 -47 20 -41 4 2 8 -16 10 -40 2 -38 0 -44 -17 -44
-11 0 -23 5 -26 10 -9 14 -36 12 -54 -4 -11 -9 -31 -11 -66 -7 l-50 6 0 60 c0
59 0 60 30 63 42 5 55 19 55 58 0 34 -4 37 -65 46 -17 3 -21 12 -23 54 l-3 51
36 6 c47 8 65 23 65 56 0 43 -17 51 -106 51 -105 0 -114 -9 -115 -125 -1 -69
-2 -75 -9 -39 -13 64 -38 117 -51 108 -7 -4 -9 -3 -6 3 4 6 -3 19 -14 29 -26
23 -161 33 -184 14 -13 -10 -15 -54 -15 -264 0 -183 3 -255 12 -264 17 -17
123 -15 156 2 57 30 102 108 102 177 0 15 4 31 10 34 6 3 10 -38 12 -107 l3
-113 94 -3 c58 -2 98 1 107 8 10 9 19 8 36 -4 12 -9 42 -16 66 -16 38 0 48 5
92 50 l50 49 0 -37 c0 -21 5 -43 12 -50 17 -17 59 -15 86 4 19 13 22 24 23 92
l1 77 12 -55 c6 -30 19 -66 28 -80 11 -18 17 -63 22 -170 18 -387 101 -757
261 -1165 93 -236 321 -693 345 -687 6 1 9 -2 5 -8 -9 -14 105 -211 118 -203
6 4 7 1 3 -6 -11 -17 192 -354 206 -345 7 4 8 2 4 -5 -10 -16 20 -61 40 -61
19 0 461 138 489 153 11 5 24 16 28 24 5 7 26 25 48 38 l39 25 -20 41 c-13 24
-25 37 -32 33 -7 -4 -8 -3 -4 4 10 16 -12 54 -26 46 -7 -4 -8 -3 -4 4 10 16
-12 54 -26 46 -7 -4 -8 -3 -4 4 10 16 -12 54 -26 46 -7 -4 -8 -3 -4 4 10 16
-12 54 -26 46 -7 -4 -8 -3 -4 4 9 15 -143 274 -157 265 -6 -3 -7 -1 -3 5 10
16 -22 74 -36 66 -7 -4 -8 -3 -4 4 9 15 -22 75 -34 67 -6 -4 -7 1 -3 11 5 13
3 15 -7 9 -8 -5 -11 -4 -6 3 10 16 -42 114 -56 106 -6 -4 -8 -3 -5 3 4 6 -38
102 -92 214 -403 828 -498 1454 -350 2299 11 63 45 243 74 400 108 566 119
654 119 940 1 213 -1 243 -22 319 -28 108 -84 237 -101 233 -7 -1 -10 2 -6 8
3 5 -7 30 -24 54 -184 267 -763 450 -1311 414z m60 -43 c-20 -24 -4 -29 19 -6
12 12 27 21 34 21 8 0 7 -4 -3 -10 -13 -8 -13 -10 2 -10 9 0 20 4 23 10 6 10
183 5 194 -5 2 -3 -5 -5 -17 -5 -12 0 -22 -4 -22 -10 0 -14 57 -13 62 2 4 12
104 1 216 -24 44 -9 53 -15 49 -30 -5 -19 8 -25 18 -8 3 6 18 10 33 10 19 0
23 -3 13 -9 -7 -5 -10 -14 -6 -21 5 -8 10 -9 18 -1 14 14 48 14 83 1 21 -8 24
-14 16 -22 -7 -7 -12 -20 -12 -30 0 -12 -7 -18 -21 -18 -19 0 -20 2 -8 16 12
14 11 16 -6 12 -11 -2 -19 -10 -17 -17 1 -7 -3 -19 -9 -27 -7 -8 -9 -18 -5
-21 4 -4 10 -2 14 4 4 6 20 15 35 18 15 4 27 11 27 16 0 5 10 9 23 9 13 0 28
5 35 12 9 9 18 9 37 0 22 -10 24 -14 13 -37 -15 -32 -32 -33 -24 0 4 14 2 25
-4 25 -5 0 -10 -4 -10 -10 0 -5 -11 -10 -23 -10 -13 0 -37 -11 -53 -25 -16
-14 -37 -25 -47 -25 -10 0 -15 -4 -12 -10 3 -6 -5 -11 -19 -11 -39 -2 -44 -3
-52 -12 -14 -13 79 -4 109 11 15 7 27 19 27 25 0 7 9 18 19 24 16 10 25 8 56
-12 28 -20 40 -23 55 -15 10 5 34 9 52 9 27 -1 29 -3 8 -6 -14 -3 -29 -9 -35
-14 -5 -5 -16 -9 -25 -9 -8 0 -21 -9 -28 -20 -16 -26 5 -28 24 -2 10 13 15 14
24 5 9 -8 7 -14 -9 -22 -12 -7 -21 -18 -21 -25 0 -11 -39 -36 -55 -36 -3 0 -5
12 -5 26 0 15 -4 23 -11 19 -6 -4 -8 -13 -5 -21 3 -8 -1 -14 -10 -14 -10 0
-14 -6 -11 -15 4 -8 2 -17 -4 -21 -17 -10 -22 3 -10 25 7 13 8 22 1 26 -6 3
-14 -5 -19 -18 -8 -20 -15 -24 -37 -19 -19 3 -25 1 -20 -7 4 -6 12 -9 17 -6 5
4 12 -1 15 -9 4 -11 14 -13 35 -9 16 3 29 2 29 -3 0 -5 17 -10 37 -12 39 -2
50 -8 39 -19 -3 -4 -25 -2 -47 4 -47 12 -79 7 -79 -14 0 -8 4 -12 9 -8 5 3 12
1 16 -5 4 -6 10 -8 15 -5 4 3 13 -1 19 -9 9 -11 -1 -13 -55 -11 -37 2 -69 7
-73 11 -3 5 -24 10 -46 12 -36 3 -77 22 -48 22 7 0 11 9 10 19 0 11 -6 17 -14
14 -7 -3 -11 -9 -8 -13 3 -5 0 -12 -6 -15 -7 -5 -1 -14 16 -25 26 -17 27 -18
8 -29 -11 -6 -23 -8 -26 -5 -7 8 -67 -18 -67 -29 0 -4 11 -13 25 -19 16 -7 24
-17 20 -26 -3 -7 -5 -20 -5 -27 0 -11 -7 -10 -32 2 -18 9 -36 20 -39 25 -3 5
-10 8 -15 7 -5 -1 -18 -1 -29 0 -17 1 -18 3 -5 11 8 5 25 10 37 10 12 0 24 3
27 8 2 4 -14 7 -37 7 -23 0 -42 -6 -45 -13 -2 -7 -8 -9 -14 -6 -6 4 -5 10 3
15 23 14 0 23 -27 11 -26 -12 -74 -7 -74 9 0 5 6 6 13 3 8 -3 19 1 25 9 10 11
7 14 -12 13 -13 -1 -30 -7 -37 -13 -11 -9 -28 -8 -69 3 -30 8 -65 14 -77 14
-15 0 -23 6 -24 18 0 10 -3 12 -6 5 -2 -7 -12 -13 -21 -14 -9 0 -12 -2 -7 -4
14 -5 122 -34 170 -47 77 -20 294 -118 315 -143 5 -5 -40 13 -98 42 -294 144
-764 209 -1054 147 -34 -7 -57 -54 -87 -176 -37 -151 -46 -259 -45 -563 1
-357 12 -465 158 -1590 93 -716 136 -1467 136 -2395 l0 -487 -37 -16 c-21 -9
-114 -46 -206 -82 -132 -51 -180 -65 -221 -65 -45 0 -54 3 -52 18 0 9 8 22 16
29 8 7 11 13 6 13 -5 0 -2 7 5 17 11 13 11 17 2 20 -15 6 -17 53 -3 53 7 0 7
6 0 19 -14 27 -13 31 10 31 11 0 20 4 20 9 0 5 -9 7 -20 4 -19 -5 -20 -1 -17
40 1 25 6 49 10 53 3 4 4 18 1 31 -4 13 -1 30 6 38 11 13 8 15 -14 15 -27 0
-27 0 -9 25 10 13 24 25 31 25 20 0 14 20 -7 20 -16 0 -18 8 -17 55 1 30 4 55
7 55 3 0 14 7 25 16 13 11 14 14 3 11 -8 -3 -25 6 -38 19 -18 19 -20 24 -7 24
20 0 20 14 0 34 -13 13 -13 17 -1 21 10 4 13 20 11 57 -2 28 1 57 7 65 9 10 7
13 -6 13 -13 0 -15 3 -7 13 5 6 9 27 7 45 -1 17 3 32 9 32 6 0 5 5 -2 12 -7 7
-12 20 -12 30 0 10 -5 18 -11 18 -8 0 -7 6 2 17 8 9 13 24 11 35 -2 13 3 18
20 19 l23 2 -23 4 c-16 3 -22 9 -18 20 4 9 2 21 -4 28 -8 10 -5 19 11 34 18
16 19 21 7 21 -22 0 -21 50 1 51 10 0 8 4 -8 10 -15 6 -21 15 -17 24 3 8 1 15
-5 15 -6 0 -6 6 0 18 7 13 6 23 -1 30 -9 9 -9 12 1 12 8 0 10 7 6 20 -5 15 -3
18 9 14 11 -4 16 -1 16 10 0 9 -6 15 -12 13 -8 -1 -14 10 -16 25 -2 20 1 28
12 28 11 0 9 7 -9 26 -27 29 -30 40 -16 49 5 3 7 21 4 40 -4 28 -2 35 10 35 9
0 19 5 23 11 4 8 -1 9 -15 4 -19 -6 -21 -4 -15 19 4 17 2 26 -6 26 -10 0 -10
3 0 15 10 12 10 15 0 15 -10 0 -10 3 0 15 10 13 9 15 -11 15 -21 1 -22 2 -6
11 19 11 23 39 5 39 -9 0 -9 3 -1 11 8 8 7 20 -3 45 -12 30 -12 34 4 43 11 7
12 10 3 11 -9 0 -12 12 -9 45 2 35 0 45 -12 45 -11 1 -9 4 5 12 25 14 35 29
28 41 -3 5 -9 3 -13 -3 -5 -8 -15 -10 -26 -5 -13 5 -15 9 -6 12 6 3 12 11 12
18 0 8 10 21 22 29 12 9 19 19 15 22 -4 4 -13 1 -22 -6 -12 -10 -15 -9 -15 5
0 10 8 24 18 31 16 12 15 13 -7 14 -21 0 -22 2 -10 17 13 15 12 16 -8 11 -27
-7 -29 0 -5 18 16 12 16 14 -3 28 -19 15 -19 15 15 16 19 1 28 4 20 7 -28 9
-60 26 -60 33 0 3 16 12 35 19 19 7 35 16 35 21 0 6 -10 6 -25 0 -24 -9 -46 4
-23 14 10 3 9 8 -3 15 -17 11 -15 55 4 79 7 9 4 12 -12 12 -32 0 -25 16 12 28
24 8 26 11 8 9 -30 -3 -40 22 -12 30 30 8 17 21 -16 16 -16 -3 -23 -1 -17 4
15 11 12 57 -5 77 -8 9 -10 16 -5 15 5 -1 18 -1 29 0 15 1 12 5 -14 18 -19 9
-29 19 -23 21 7 2 12 12 12 23 0 10 6 19 13 20 6 0 1 5 -13 10 -13 6 -20 13
-15 17 17 12 16 72 0 72 -19 0 -19 10 -1 36 16 23 11 37 -19 48 -12 4 -15 10
-9 14 6 4 14 18 17 33 5 18 1 29 -13 39 -20 14 -20 15 3 27 l22 12 -25 1 c-15
1 -19 4 -10 7 8 3 23 14 34 25 16 14 17 18 5 18 -9 0 -19 -3 -23 -7 -8 -9 -36
-13 -36 -6 0 3 8 12 18 19 16 13 16 15 -2 29 -11 8 -15 15 -8 15 19 0 11 53
-12 78 l-20 22 32 12 c18 7 32 16 32 21 0 5 -7 6 -16 3 -21 -8 -60 24 -43 34
6 4 12 19 12 34 1 15 8 26 17 27 8 0 -1 6 -20 12 l-35 10 29 6 c16 3 31 12 34
19 3 9 -3 11 -20 7 -23 -6 -24 -4 -20 24 3 25 1 31 -14 31 -14 0 -15 3 -6 12
17 17 15 47 -3 54 -23 9 -18 27 6 21 15 -4 18 -2 10 7 -6 7 -8 16 -4 20 4 4 1
11 -7 16 -12 7 -12 11 1 26 13 15 12 16 -11 9 -22 -7 -23 -6 -8 9 9 9 21 16
27 16 6 0 11 5 11 12 0 6 -3 8 -7 5 -3 -4 -14 0 -24 9 -13 12 -15 22 -9 44 6
21 5 30 -7 34 -11 5 -8 11 14 30 24 21 25 24 8 23 -16 -2 -20 5 -22 31 -1 21
4 35 13 39 20 8 6 25 -16 18 -10 -3 -21 -1 -25 4 -3 6 7 14 22 17 l28 7 -28
10 c-15 5 -27 13 -27 18 0 4 7 6 15 3 23 -9 18 15 -7 38 -19 16 -20 19 -4 14
14 -5 17 -2 12 11 -4 9 -1 20 6 25 10 6 10 10 2 16 -7 4 -11 28 -10 54 1 36
-3 51 -19 65 l-20 18 23 3 c22 3 23 4 5 17 -17 14 -17 14 6 15 l23 0 -23 19
c-20 16 -21 21 -10 35 11 13 10 18 -3 32 -16 15 -15 17 1 30 16 12 16 15 3 24
-11 7 -12 12 -3 18 8 5 9 19 4 44 -7 28 -5 38 5 42 8 3 11 12 7 22 -3 9 0 20
8 26 10 6 6 7 -11 2 -24 -6 -25 -6 -7 13 17 20 17 21 0 27 -16 7 -16 9 6 20
21 12 21 14 6 20 -17 6 -17 7 1 21 13 10 14 14 5 15 -9 0 -11 6 -6 18 4 9 8
28 10 42 1 14 5 36 10 49 6 20 4 23 -9 18 -9 -4 -16 -2 -16 2 0 5 7 12 16 15
10 4 14 14 11 26 -3 10 0 21 5 22 6 2 11 16 11 31 0 15 3 30 8 33 4 2 6 11 2
19 -3 8 0 15 7 15 7 0 10 7 6 15 -9 23 11 65 36 75 23 9 23 9 1 9 l-21 1 19
40 c10 21 19 46 19 54 0 8 5 18 11 21 5 4 14 18 19 31 5 13 15 22 22 20 7 -1
10 -1 5 1 -8 5 24 63 35 63 4 0 8 7 8 15 0 7 6 18 14 22 8 4 42 34 77 66 98
90 107 97 111 97 2 0 28 23 56 50 29 28 61 50 71 50 11 0 22 9 26 19 6 20 54
57 68 53 4 -1 7 4 7 12 0 31 236 196 254 178 4 -3 16 0 29 6 39 19 139 43 195
48 31 2 58 6 60 9 3 3 19 5 35 5 25 0 28 -2 17 -15z m1156 -384 c-3 -4 7 -14
22 -21 26 -13 26 -14 5 -18 -13 -2 -23 -10 -23 -17 0 -9 6 -12 17 -8 11 5 14
3 8 -6 -6 -10 -3 -11 14 -2 14 8 21 8 21 1 0 -18 3 -24 22 -45 10 -10 16 -25
14 -32 -3 -7 2 -13 10 -13 10 0 14 -6 10 -15 -3 -9 0 -18 8 -21 8 -3 11 -15 8
-30 -3 -19 0 -24 17 -24 22 0 28 14 11 25 -6 4 -8 11 -4 16 3 6 -2 19 -12 30
-9 10 -12 19 -7 19 6 0 9 14 7 32 -6 45 0 34 34 -64 51 -147 66 -265 59 -468
-9 -236 -22 -331 -128 -895 -83 -445 -86 -466 -103 -595 -49 -375 -44 -689 14
-1035 17 -103 75 -339 105 -424 30 -90 30 -90 4 -62 -11 12 -26 20 -32 18 -16
-6 -10 -49 8 -63 11 -8 12 -13 2 -23 -9 -9 -6 -13 12 -18 17 -4 19 -8 9 -14
-8 -6 -9 -12 -3 -16 19 -15 14 -43 -9 -44 -19 -1 -19 -2 3 -8 28 -7 31 -13 65
-101 14 -36 41 -101 60 -144 19 -44 33 -83 30 -88 -3 -4 2 -11 10 -14 25 -10
19 -32 -10 -36 -24 -3 -24 -4 -10 -23 11 -14 14 -15 10 -4 -4 13 0 15 20 12
26 -5 45 -32 23 -34 -7 0 -3 -4 8 -9 17 -7 17 -9 3 -9 -10 -1 -18 -6 -18 -12
0 -6 9 -8 20 -4 16 5 20 2 20 -14 0 -12 5 -21 11 -21 5 0 9 -8 8 -17 -3 -32 1
-43 15 -43 8 0 16 -6 19 -14 6 -14 -17 -26 -78 -42 l-30 -8 40 -5 c27 -4 43
-2 48 6 15 24 43 14 60 -22 11 -24 12 -33 4 -29 -33 12 -132 18 -148 8 -19
-11 -9 -25 11 -14 15 8 20 8 20 -1 0 -9 3 -9 14 0 10 8 21 8 41 1 15 -6 30 -8
35 -5 5 3 12 0 15 -6 4 -5 13 -8 19 -6 17 7 41 -32 28 -45 -17 -17 -47 -4 -45
20 2 12 -2 22 -7 22 -6 0 -10 -6 -10 -14 0 -8 -13 -17 -29 -21 -16 -3 -37 -15
-47 -26 -9 -10 -23 -19 -31 -19 -7 0 -13 -4 -13 -10 0 -12 29 -2 53 18 11 10
33 15 60 13 44 -2 78 -21 39 -21 -13 0 -25 -7 -28 -15 -4 -8 -12 -15 -20 -15
-8 0 -14 -4 -14 -10 0 -5 -7 -10 -16 -10 -8 0 -12 -4 -9 -10 10 -17 26 -11 56
21 17 18 42 32 64 36 40 6 49 -11 10 -21 -14 -4 -25 -11 -25 -16 0 -14 37 -13
46 1 9 16 26 -4 19 -23 -5 -12 -16 -15 -48 -11 -53 7 -39 -12 16 -21 29 -5 39
-3 43 9 6 14 8 14 20 -2 19 -26 17 -35 -6 -28 -11 3 -20 2 -20 -3 0 -5 15 -14
33 -19 l32 -10 -25 -11 -25 -10 28 -11 c16 -6 32 -11 37 -11 13 0 20 -28 7
-34 -7 -2 -5 -5 5 -5 9 -1 20 -6 23 -12 4 -5 -10 -3 -30 6 -39 16 -65 8 -65
-21 0 -21 21 -28 36 -12 19 18 75 12 67 -8 -3 -7 -15 -14 -26 -15 -12 0 -41
-1 -64 -2 -44 -1 -61 -16 -20 -18 29 -2 29 -2 51 7 16 6 18 4 13 -10 -5 -12
-3 -16 5 -12 7 3 21 9 31 12 9 4 17 10 17 15 0 5 4 9 9 9 5 0 7 -9 4 -20 -4
-14 0 -20 11 -20 9 0 16 -6 15 -13 -3 -26 1 -37 15 -37 8 0 18 -5 22 -11 4 -7
-2 -9 -17 -7 -14 2 -24 -2 -25 -9 -1 -7 -2 -20 -3 -28 0 -8 -8 -15 -17 -15 -8
0 -13 -4 -9 -9 3 -5 1 -12 -5 -16 -6 -4 -8 -11 -5 -16 4 -5 0 -9 -7 -9 -24 0
-16 -50 10 -64 27 -14 19 -26 -18 -26 -14 0 -30 -4 -36 -8 -16 -15 -91 -32
-108 -26 -25 10 -19 22 8 17 13 -3 32 0 43 6 30 18 -53 14 -88 -4 -16 -9 -34
-13 -39 -10 -6 3 -7 -1 -4 -10 5 -12 14 -15 30 -11 13 4 24 2 24 -3 0 -8 -38
-19 -81 -24 -9 -1 -15 -7 -12 -14 5 -13 53 -7 63 8 5 8 113 39 134 39 5 0 2
-6 -9 -13 -11 -9 -14 -16 -7 -21 6 -3 17 0 25 8 24 24 36 5 27 -42 -6 -36 -5
-42 7 -38 8 3 24 1 35 -5 21 -11 99 3 125 23 6 5 20 9 30 8 31 -4 43 0 43 11
0 7 -12 9 -32 7 -30 -5 -31 -4 -12 11 10 9 19 23 19 31 0 9 11 16 25 18 24 3
25 2 5 -13 -19 -15 -18 -16 15 -12 19 2 43 8 52 12 10 4 23 5 30 2 7 -2 -3
-11 -23 -19 -19 -9 -44 -27 -55 -41 -16 -21 -63 -39 -260 -101 -224 -71 -311
-93 -239 -61 17 7 30 17 30 22 0 4 4 14 8 21 6 8 2 12 -11 12 -20 0 -36 25
-26 41 3 5 2 14 -2 20 -4 8 -8 8 -13 0 -4 -6 -12 -2 -19 10 -12 19 -11 20 10
14 51 -16 68 -25 68 -35 0 -5 -8 -10 -17 -10 -13 0 -14 -3 -5 -12 9 -9 16 -8
30 6 15 13 25 14 45 7 38 -15 66 -9 95 18 19 17 23 26 13 29 -7 2 -16 1 -20
-4 -21 -30 -83 -43 -111 -23 -13 9 -12 10 3 5 11 -3 20 0 23 9 4 8 10 15 16
15 5 0 6 -6 2 -12 -6 -10 -4 -10 7 -2 8 6 25 14 39 17 14 3 34 13 45 21 19 15
19 15 -5 9 -14 -3 -31 -10 -38 -16 -6 -5 -26 -7 -42 -3 -23 4 -30 2 -30 -11 0
-13 -8 -15 -45 -10 -56 8 -118 34 -111 46 3 5 -1 11 -9 15 -8 3 -15 11 -15 17
0 7 3 10 6 6 3 -3 32 8 64 24 57 29 79 52 60 64 -6 4 -10 -1 -10 -9 0 -10 -9
-16 -25 -16 -14 0 -34 -9 -46 -21 -26 -26 -65 -34 -73 -14 -3 8 -1 15 4 15 6
0 10 4 10 10 0 5 -6 7 -14 4 -8 -3 -17 -1 -21 5 -3 7 2 11 14 11 12 0 21 7 21
15 0 15 -35 21 -43 8 -2 -5 -2 -2 -1 5 2 6 -3 12 -10 12 -38 0 -12 63 29 73
13 3 9 5 -11 6 -20 1 -34 -5 -38 -14 -11 -29 -28 -16 -22 17 4 23 3 27 -2 13
-9 -19 -9 -19 -21 3 -7 14 -8 22 -1 22 5 0 10 4 10 9 0 5 -8 8 -17 7 -10 0
-18 6 -18 14 0 10 8 14 24 12 21 -2 22 0 10 14 -7 9 -22 14 -35 11 -16 -3 -26
4 -38 25 -10 15 -14 33 -11 38 3 6 -1 10 -10 10 -9 0 -15 6 -12 13 2 6 9 12
14 12 6 0 15 3 19 7 4 5 -7 8 -24 8 -36 0 -59 29 -39 50 10 10 8 12 -7 6 -15
-5 -17 -2 -13 14 3 11 0 20 -6 20 -7 0 -20 14 -29 30 -9 17 -13 30 -8 30 6 0
10 5 10 11 0 6 -6 9 -14 6 -8 -3 -18 5 -25 19 -8 18 -8 24 2 24 6 0 4 5 -6 11
-9 5 -26 28 -37 49 -19 37 -19 40 -2 49 16 10 16 10 -2 11 -22 0 -45 27 -46
53 0 9 -5 17 -11 17 -6 0 -9 9 -6 20 3 11 2 18 -2 16 -10 -6 -83 153 -76 165
4 5 2 9 -4 9 -5 0 -15 16 -21 36 -7 19 -18 38 -26 41 -8 3 -11 9 -8 15 12 18
-7 58 -34 72 -25 14 -26 15 -4 16 27 0 28 11 3 30 -11 7 -18 17 -15 22 3 4 -2
15 -10 24 -19 18 -21 54 -3 55 10 0 10 2 0 6 -24 9 -13 23 13 17 17 -5 25 -3
21 3 -4 6 -25 13 -47 17 -22 3 -40 11 -40 16 0 6 -10 10 -22 10 -21 1 -21 2
-5 11 10 6 25 8 33 5 10 -4 14 -1 11 6 -2 7 -11 12 -21 10 -18 -3 -20 6 -6 28
8 12 10 12 10 1 0 -8 3 -11 6 -8 4 4 1 14 -6 23 -12 14 -15 13 -30 -7 -12 -14
-19 -18 -24 -10 -4 6 -2 11 4 11 7 0 9 8 5 20 -6 19 3 25 28 21 5 -1 6 3 2 9
-3 5 -18 10 -33 10 l-27 1 30 24 c24 20 27 27 17 37 -8 8 -15 9 -20 3 -10 -14
-42 -18 -42 -5 0 5 5 10 11 10 5 0 8 4 5 9 -3 5 4 12 17 16 19 6 20 8 4 12
-14 4 -16 8 -6 19 9 11 8 14 -8 14 -15 0 -20 7 -20 29 0 20 4 28 14 24 7 -3
13 0 13 7 0 8 -11 11 -30 8 -42 -6 -49 10 -11 23 33 12 42 31 14 28 -35 -3
-40 1 -35 26 2 14 8 25 12 25 4 0 10 9 13 19 3 14 -2 21 -17 25 -16 5 -18 8
-7 15 17 11 -3 26 -21 15 -9 -5 -9 -2 1 9 7 9 19 17 26 17 16 0 27 27 15 35
-6 4 -10 -1 -10 -9 0 -9 -7 -16 -16 -16 -12 0 -14 7 -9 29 5 24 2 30 -17 35
-14 5 -18 9 -10 13 6 2 12 10 12 18 0 7 10 20 23 29 22 16 22 16 -10 11 -33
-6 -54 9 -27 19 10 4 15 16 13 33 -1 16 2 36 6 46 5 12 2 22 -11 32 -18 14
-18 14 7 15 19 0 28 6 32 22 8 29 0 36 -17 13 -8 -11 -18 -15 -26 -10 -10 6
-9 9 1 16 11 7 10 11 -6 23 -20 15 -19 15 5 16 14 0 20 4 14 8 -6 4 -13 14
-17 24 -4 13 1 16 28 16 47 0 75 11 75 29 0 12 -3 13 -14 4 -12 -10 -20 -9
-38 1 -22 12 -22 13 17 19 37 6 38 6 10 9 -16 2 -39 4 -50 4 -20 1 -35 36 -16
36 6 0 11 5 11 11 0 6 -7 9 -15 5 -8 -3 -15 -1 -15 4 0 6 5 10 10 10 6 0 10 5
10 10 0 6 -7 10 -15 10 -10 0 -15 10 -15 30 0 17 3 30 8 30 4 0 8 18 9 40 1
28 -3 40 -13 40 -23 0 -18 61 6 67 23 6 27 23 5 23 -9 0 -15 9 -15 25 0 15 6
25 15 25 9 0 12 -6 8 -17 -5 -15 -4 -16 8 -5 12 11 11 15 -5 27 -23 17 -15 41
18 57 20 9 25 18 24 44 -1 19 2 37 5 41 4 3 2 12 -4 20 -9 9 -8 13 0 13 6 0
11 7 11 15 0 9 10 20 23 25 21 8 20 9 -7 9 -28 1 -28 2 -12 20 9 10 14 25 10
35 -4 10 -1 16 7 16 10 0 10 3 1 12 -17 17 -15 26 14 53 21 19 23 25 10 25
-21 0 -21 16 2 29 16 10 16 10 -2 11 -14 0 -16 3 -8 13 10 12 20 61 27 132 2
17 4 30 5 30 1 0 3 9 5 19 2 10 10 23 17 27 8 6 9 9 2 9 -11 0 -4 60 13 100 5
14 7 23 11 78 1 14 8 22 21 22 11 0 23 5 27 12 5 7 2 9 -9 5 -9 -3 -21 1 -29
10 -10 13 -10 17 0 20 6 3 12 13 12 24 0 10 5 19 12 19 6 0 3 7 -8 16 -18 15
-18 15 9 11 15 -2 30 0 33 4 3 5 -4 9 -16 9 -19 0 -21 5 -18 50 2 27 7 50 12
50 5 0 3 6 -3 14 -10 12 -8 15 10 18 22 3 22 4 4 21 -14 14 -15 21 -6 26 7 5
14 37 17 75 2 37 7 73 10 78 4 7 2 8 -4 4 -7 -4 -12 -2 -12 4 0 6 11 16 25 22
25 11 34 28 15 28 -5 0 -10 -5 -10 -11 0 -5 -4 -8 -10 -4 -6 4 -6 15 1 32 6
16 6 30 1 35 -6 6 -6 25 -1 46 5 23 4 39 -3 43 -7 4 -7 9 1 14 7 3 9 15 6 26
-4 10 -2 19 3 19 5 0 12 9 15 19 3 14 -2 21 -19 25 -29 8 -30 20 -5 45 16 16
17 20 5 25 -21 8 -17 22 13 51 15 14 24 25 19 25 -5 0 -17 -7 -27 -16 -12 -11
-23 -13 -35 -6 -14 8 -13 10 10 16 33 8 35 30 1 24 -21 -4 -23 -3 -14 13 5 11
14 19 19 19 6 0 10 4 10 9 0 4 -11 6 -25 3 -15 -2 -25 0 -25 7 0 6 9 11 19 11
23 0 36 29 21 44 -8 8 -9 6 -5 -6 7 -19 -9 -24 -39 -12 -21 8 -10 24 12 18 9
-2 4 2 -13 10 l-30 14 30 4 c41 4 35 23 -6 21 l-34 -2 28 11 c27 12 37 28 15
28 -6 0 -8 3 -5 6 4 4 -3 20 -14 35 l-20 29 30 0 c17 0 31 5 31 10 0 7 -13 9
-33 5 -23 -5 -37 -2 -46 8 -10 13 -8 16 8 22 12 4 21 15 21 26 0 11 -4 17 -10
14 -5 -3 -10 -13 -10 -21 0 -19 -24 -18 -41 3 -10 11 -10 14 -1 9 6 -4 18 -4
25 1 8 5 2 10 -18 15 -18 4 -6 6 32 3 34 -3 69 -2 78 1 25 10 17 25 -12 23
-16 -1 -39 -1 -53 0 -24 2 -24 2 -7 16 11 7 25 11 33 8 8 -3 21 2 28 12 10 14
17 16 32 7 18 -11 18 -11 -3 -12 -31 0 -29 -16 1 -22 16 -3 27 0 31 10 4 11 8
12 19 3 9 -8 16 -8 20 -2 4 5 -3 12 -14 16 -11 3 -20 11 -20 16 0 5 -10 9 -22
9 -13 0 -30 5 -38 10 -12 8 -12 10 5 9 11 0 39 -3 61 -8 32 -6 50 -4 80 11 21
10 43 23 49 30 7 8 5 8 -8 1 -23 -12 -69 -4 -64 11 5 16 56 20 82 6 15 -8 32
-9 56 -2 l34 10 -34 8 c-30 6 -32 9 -17 19 9 7 16 17 16 24 0 6 5 11 11 11 6
0 8 -9 4 -21 -5 -14 -3 -19 3 -15 6 3 13 2 17 -4 3 -5 11 -10 18 -10 6 0 2 7
-9 15 -18 15 -18 16 11 14 17 -1 41 3 55 9 24 10 23 11 -15 12 -22 1 -34 4
-28 7 8 3 11 15 8 29 -3 13 -7 35 -10 49 -3 14 -1 25 5 25 6 0 9 -4 6 -9z
m-1325 -2455 c1 -6 1 -14 0 -18 0 -5 4 -8 9 -8 6 0 10 -8 10 -17 0 -15 2 -16
10 -3 5 8 7 26 4 40 -4 21 -4 22 6 8 30 -48 30 -250 -1 -345 -17 -52 -72 -87
-147 -91 -35 -3 -67 -1 -72 4 -5 5 12 8 40 6 45 -4 48 -2 43 17 -4 17 -8 19
-19 10 -11 -9 -14 -8 -14 6 0 14 6 16 41 10 33 -6 43 -4 54 12 17 22 19 10 4
-20 -7 -14 2 -9 27 16 l39 37 4 130 c3 127 -1 144 -28 118 -10 -11 -12 -9 -10
7 4 28 -11 85 -22 85 -5 0 -9 4 -9 10 0 13 30 1 31 -14z"/>
<path d="M8155 6527 c-45 -11 -52 -16 -72 -57 -54 -111 -12 -120 102 -22 53
46 73 68 61 70 -9 2 -16 8 -16 13 0 11 -11 10 -75 -4z"/>
<path d="M9696 4113 c-4 -4 -17 -8 -29 -8 -20 0 -22 -6 -27 -78 -3 -43 -3 -81
-1 -83 3 -2 5 -16 6 -31 0 -17 -5 -28 -17 -31 -22 -5 -25 -57 -4 -69 11 -6 15
-32 17 -99 1 -51 -1 -96 -5 -102 -3 -5 1 -13 10 -16 24 -9 62 -7 69 4 3 6 0
10 -8 10 -8 0 -21 8 -28 17 -12 15 -12 16 7 11 14 -3 25 1 33 14 10 17 7 21
-26 35 l-38 17 30 7 c17 3 26 7 20 8 -5 1 -3 5 5 11 8 5 11 12 7 16 -3 4 -13
1 -21 -5 -19 -16 -32 4 -16 24 8 10 9 15 2 15 -11 0 -10 34 2 61 9 21 44 14
50 -10 14 -52 20 -77 21 -86 1 -5 5 -17 9 -25 3 -9 12 -38 19 -65 9 -39 18
-52 38 -59 15 -5 35 -5 45 -1 17 8 17 9 -4 13 -18 3 -21 8 -16 24 4 14 2 18
-5 14 -6 -4 -14 1 -17 11 -3 10 -10 26 -15 35 -12 24 -11 28 5 28 8 0 18 4 21
10 3 5 0 7 -8 4 -16 -6 -41 21 -33 35 4 5 2 12 -3 16 -6 3 -8 12 -5 19 3 8 0
17 -5 21 -6 3 -9 11 -6 16 4 5 1 9 -4 9 -6 0 -11 10 -11 23 0 13 -5 28 -12 35
-8 8 -8 15 3 28 8 10 9 15 3 11 -7 -4 -14 1 -17 13 -3 10 0 21 7 24 6 2 -8 3
-31 1 l-42 -4 0 54 c0 47 3 54 21 57 12 2 23 9 26 16 4 13 -10 17 -22 5z"/>
<path d="M10105 4112 c-65 -42 -80 -68 -80 -140 0 -66 1 -69 63 -157 34 -50
62 -98 62 -108 0 -23 -23 -31 -50 -17 -11 6 -30 8 -40 5 -30 -10 -28 -88 2
-109 45 -32 117 -15 168 38 19 21 25 40 28 90 5 72 -14 120 -73 185 -57 63
-70 131 -21 116 11 -4 28 -6 36 -6 8 1 31 2 50 4 l35 2 6 -75 c4 -41 7 -136 8
-211 1 -147 5 -159 55 -159 62 0 64 9 58 234 -4 186 -3 203 13 209 9 4 21 5
26 1 5 -3 9 -82 9 -175 0 -127 4 -179 15 -205 9 -23 19 -33 26 -28 8 4 9 3 5
-5 -9 -13 50 -41 86 -41 43 0 102 43 125 90 22 44 22 45 24 15 1 -16 2 -37 1
-45 -2 -39 17 -50 86 -50 102 0 163 48 178 142 11 62 24 32 24 -52 0 -68 3
-81 19 -90 57 -30 101 5 102 83 l1 52 16 -45 c22 -59 31 -72 44 -64 7 4 8 2 4
-4 -20 -33 98 -43 148 -13 63 39 71 68 71 246 0 228 -26 285 -128 285 -59 0
-106 -32 -137 -95 l-25 -50 -5 70 -5 70 -43 3 c-60 4 -72 -9 -73 -82 l0 -61
-23 51 c-35 77 -63 94 -155 94 -47 0 -82 -5 -89 -12 -7 -7 -12 -45 -13 -93 -1
-67 -2 -75 -10 -45 -5 19 -8 53 -8 75 1 22 1 47 0 56 -1 21 -63 34 -91 19 -19
-10 -20 -20 -20 -220 0 -138 -4 -210 -10 -210 -17 0 -19 17 -23 223 -2 159 -6
200 -18 207 -8 5 -88 10 -179 10 -91 -1 -183 2 -205 5 -30 5 -48 1 -70 -13z
m611 -321 l-1 -143 -39 -34 c-44 -38 -79 -48 -121 -34 l-30 10 32 -5 c18 -2
40 -2 49 2 12 5 9 9 -15 19 -30 12 -31 16 -31 71 -1 32 -2 95 -3 140 -2 45 1
79 5 77 4 -3 8 -52 8 -109 0 -64 4 -106 11 -111 8 -4 8 -9 0 -17 -18 -18 -13
-25 17 -29 15 -2 33 4 40 12 12 13 13 12 9 -7 -5 -21 -4 -21 19 -6 l24 15 0
212 c0 214 10 290 21 154 3 -40 5 -138 5 -217z m184 253 c0 -3 -13 -3 -30 1
-19 4 -30 3 -30 -4 0 -6 4 -11 8 -11 5 0 16 -6 26 -13 16 -12 19 -32 23 -132
6 -138 -2 -205 -23 -205 -12 0 -14 27 -14 156 0 138 2 155 15 144 8 -7 15 -8
15 -3 0 13 -40 49 -40 37 -1 -5 0 -91 0 -190 1 -161 -1 -182 -16 -188 -13 -5
-14 -4 -6 7 7 8 11 67 10 157 0 141 -10 199 -29 169 -4 -7 -11 -10 -16 -6 -4
5 -1 12 7 17 9 6 13 22 11 49 -2 31 1 40 16 43 18 4 73 -17 73 -28z m414 17
c3 -5 -1 -12 -10 -15 -13 -5 -14 -9 -4 -20 15 -19 26 -341 11 -350 -19 -12
-32 34 -38 132 -7 120 2 196 23 188 8 -3 14 -1 14 5 0 16 -31 23 -41 8 -5 -8
-9 -70 -10 -139 -1 -153 -7 -147 -11 10 -2 68 -7 115 -13 115 -5 0 -11 -19
-13 -42 -2 -24 -8 -43 -13 -43 -14 0 0 71 17 91 8 8 14 23 14 32 0 27 61 50
74 28z m-310 -211 c1 -152 -17 -209 -78 -245 -35 -20 -55 -25 -107 -23 l-64 1
55 7 c30 4 45 7 33 8 -12 1 -25 7 -29 14 -5 8 3 9 29 5 20 -3 39 -1 42 4 4 5
-2 9 -12 10 -10 0 -5 4 11 10 37 10 41 7 25 -23 -8 -15 1 -10 25 15 37 39 49
74 21 63 -8 -3 -15 -1 -15 4 0 6 9 10 20 10 23 0 28 40 7 62 -15 15 -19 88 -5
88 5 0 6 5 3 10 -3 6 -1 10 4 10 6 0 11 8 10 18 0 10 -3 12 -6 5 -2 -7 -9 -13
-14 -13 -13 0 -11 38 2 42 7 2 11 25 11 53 l0 50 15 -35 c11 -24 16 -70 17
-150z"/>
</g>
</svg>
